<svg width="560" height="30" viewBox="0 0 560 30" fill="none" xmlns="http://www.w3.org/2000/svg">
<path d="M13.1475 2.58368L9.82677 21.4163" stroke="#3C2769" stroke-width="1.56345" stroke-linecap="square"/>
<path d="M13.5117 6.43884L9.46354 17.5611" stroke="#3C2769" stroke-width="1.56345" stroke-linecap="square"/>
<path d="M12.998 9.38312L9.97637 14.6168" stroke="#3C2769" stroke-width="1.56345" stroke-linecap="square"/>
<path d="M17.9473 4.30066L5.0263 19.6993" stroke="#3C2769" stroke-width="1.56345" stroke-linecap="square"/>
<path d="M13.377 10.4142L9.5973 13.5857" stroke="#3C2769" stroke-width="1.56345" stroke-linecap="square"/>
<path d="M15.2666 10.6244L7.7076 13.3756" stroke="#3C2769" stroke-width="1.56345" stroke-linecap="square"/>
<path d="M21.6875 12H1.28696" stroke="#3C2769" stroke-width="1.56345" stroke-linecap="square"/>
<path d="M19.7891 13.4637L3.18601 10.5362" stroke="#3C2769" stroke-width="1.56345" stroke-linecap="square"/>
<path d="M20.0693 15.1236L2.90509 8.87634" stroke="#3C2769" stroke-width="1.56345" stroke-linecap="square"/>
<path d="M14.3857 13.6733L8.58906 10.3266" stroke="#3C2769" stroke-width="1.56345" stroke-linecap="square"/>
<path d="M18.1162 17.5627L4.85736 6.43719" stroke="#3C2769" stroke-width="1.56345" stroke-linecap="square"/>
<path d="M14.4482 15.5287L8.52622 8.47113" stroke="#3C2769" stroke-width="1.56345" stroke-linecap="square"/>
<path d="M14.1973 19.4471L8.7762 4.55286" stroke="#3C2769" stroke-width="1.56345" stroke-linecap="square"/>
<path d="M11.8262 13.926L11.147 10.0739" stroke="#3C2769" stroke-width="1.56345" stroke-linecap="square"/>
<path d="M11.4873 16.182V7.81793" stroke="#3C2769" stroke-width="1.56345" stroke-linecap="square"/>
<path d="M10.0039 20.4073L12.9688 3.59271" stroke="#3C2769" stroke-width="1.56345" stroke-linecap="square"/>
<path d="M10.6094 13.5202L12.3648 10.4798" stroke="#3C2769" stroke-width="1.56345" stroke-linecap="square"/>
<path d="M8.8457 15.1485L14.1296 8.85144" stroke="#3C2769" stroke-width="1.56345" stroke-linecap="square"/>
<path d="M8.65039 14.3806L14.3247 9.61932" stroke="#3C2769" stroke-width="1.56345" stroke-linecap="square"/>
<path d="M2.50586 17.1852L20.4682 6.8147" stroke="#3C2769" stroke-width="1.56345" stroke-linecap="square"/>
<path d="M1.96191 13.6796L21.0125 10.3204" stroke="#3C2769" stroke-width="1.56345" stroke-linecap="square"/>
<path d="M4.84766 12H18.1266" stroke="#3C2769" stroke-width="1.56345" stroke-linecap="square"/>
<path d="M1.70508 6.3526L21.268 17.6473" stroke="#3C2769" stroke-width="1.56345" stroke-linecap="square"/>
<path d="M8.76367 9.7146L14.2109 14.2853" stroke="#3C2769" stroke-width="1.56345" stroke-linecap="square"/>
<path d="M10.1562 10.4139L12.8179 13.586" stroke="#3C2769" stroke-width="1.56345" stroke-linecap="square"/>
<path d="M7.18652 4.55115L15.7877 19.4488" stroke="#3C2769" stroke-width="1.56345" stroke-linecap="square"/>
<path d="M11.4873 1.92157V22.0784" stroke="#3C2769" stroke-width="1.56345" stroke-linecap="square"/>
<path d="M12.0078 10.5685L10.9658 13.4314" stroke="#3C2769" stroke-width="1.56345" stroke-linecap="square"/>
<path d="M21.2148 6.38361L1.75917 17.6163" stroke="#3C2769" stroke-width="1.56345" stroke-linecap="square"/>
<path d="M15.2129 12H7.76144" stroke="#3C2769" stroke-width="1.56345" stroke-linecap="square"/>
<path d="M32 17.0919H40.3851V14.8085H34.7694V3.99298H32V17.0919Z" fill="#3C2769"/>
<path d="M46.0657 17.2837C49.0462 17.2837 50.9011 15.2434 50.9011 12.2182C50.9011 9.17368 49.0462 7.13977 46.0657 7.13977C43.0854 7.13977 41.2305 9.17368 41.2305 12.2182C41.2305 15.2434 43.0854 17.2837 46.0657 17.2837ZM46.0784 15.1731C44.7033 15.1731 43.9999 13.9131 43.9999 12.199C43.9999 10.4849 44.7033 9.21846 46.0784 9.21846C47.428 9.21846 48.1317 10.4849 48.1317 12.199C48.1317 13.9131 47.428 15.1731 46.0784 15.1731Z" fill="#3C2769"/>
<path d="M56.558 20.9806C59.3659 20.9806 61.3614 19.7014 61.3614 17.1878V7.2677H58.656V8.91785H58.5537C58.189 8.11837 57.3895 7.13977 55.7457 7.13977C53.5904 7.13977 51.7676 8.81552 51.7676 12.1606C51.7676 15.4289 53.5392 16.9511 55.7523 16.9511C57.3192 16.9511 58.1955 16.1644 58.5537 15.3522H58.6688V17.1494C58.6688 18.499 57.8053 19.0234 56.622 19.0234C55.4196 19.0234 54.8119 18.499 54.588 17.9041L52.0683 18.2431C52.3945 19.7909 53.9101 20.9806 56.558 20.9806ZM56.6158 14.9044C55.279 14.9044 54.5498 13.8427 54.5498 12.1478C54.5498 10.4785 55.2662 9.30799 56.6158 9.30799C57.9396 9.30799 58.6815 10.4273 58.6815 12.1478C58.6815 13.8811 57.9268 14.9044 56.6158 14.9044Z" fill="#3C2769"/>
<path d="M67.4289 17.2837C70.4095 17.2837 72.2644 15.2434 72.2644 12.2182C72.2644 9.17368 70.4095 7.13977 67.4289 7.13977C64.4484 7.13977 62.5938 9.17368 62.5938 12.2182C62.5938 15.2434 64.4484 17.2837 67.4289 17.2837ZM67.4417 15.1731C66.0666 15.1731 65.3632 13.9131 65.3632 12.199C65.3632 10.4849 66.0666 9.21846 67.4417 9.21846C68.7913 9.21846 69.495 10.4849 69.495 12.199C69.495 13.9131 68.7913 15.1731 67.4417 15.1731Z" fill="#3C2769"/>
<path d="M73.4949 17.0918H76.2195V7.26768H73.4949V17.0918ZM74.8637 6.00128C75.676 6.00128 76.3411 5.38088 76.3411 4.61977C76.3411 3.86503 75.676 3.24463 74.8637 3.24463C74.0577 3.24463 73.3926 3.86503 73.3926 4.61977C73.3926 5.38088 74.0577 6.00128 74.8637 6.00128Z" fill="#3C2769"/>
<path d="M77.8623 20.7759H80.587V15.5184H80.6703C81.0475 16.3371 81.8725 17.2517 83.4587 17.2517C85.6973 17.2517 87.4434 15.4801 87.4434 12.1926C87.4434 8.81552 85.6205 7.13977 83.4652 7.13977C81.8215 7.13977 81.0347 8.11837 80.6703 8.91785H80.5487V7.2677H77.8623V20.7759ZM80.5294 12.1798C80.5294 10.4273 81.2714 9.30799 82.5954 9.30799C83.945 9.30799 84.6612 10.4785 84.6612 12.1798C84.6612 13.8939 83.932 15.0835 82.5954 15.0835C81.2841 15.0835 80.5294 13.9323 80.5294 12.1798Z" fill="#3C2769"/>
<path d="M96.8932 10.0691C96.65 8.25908 95.1919 7.13977 92.7101 7.13977C90.1966 7.13977 88.5401 8.30383 88.5463 10.197C88.5401 11.6681 89.4674 12.6211 91.3863 13.0048L93.0876 13.3438C93.9446 13.5165 94.3349 13.8299 94.3476 14.3224C94.3349 14.9044 93.7015 15.3202 92.7487 15.3202C91.7763 15.3202 91.1304 14.9044 90.9641 14.105L88.2842 14.2457C88.5401 16.1261 90.1391 17.2837 92.7421 17.2837C95.2877 17.2837 97.1106 15.9854 97.1171 14.0474C97.1106 12.6275 96.1832 11.7768 94.2771 11.3867L92.499 11.0285C91.5844 10.8302 91.2455 10.5168 91.252 10.0435C91.2455 9.45511 91.9106 9.07135 92.7549 9.07135C93.7015 9.07135 94.2643 9.58941 94.3987 10.2226L96.8932 10.0691Z" fill="#3C2769"/>
<path d="M104.593 12.9089C104.6 14.2265 103.698 14.9172 102.719 14.9172C101.689 14.9172 101.024 14.1945 101.018 13.0368V7.2677H98.293V13.5229C98.2995 15.819 99.6425 17.2198 101.619 17.2198C103.096 17.2198 104.158 16.4586 104.6 15.3074H104.702V17.0918H107.318V7.2677H104.593V12.9089Z" fill="#3C2769"/>
<path d="M108.957 17.0919H111.682V11.1948C111.682 10.1075 112.373 9.38476 113.281 9.38476C114.176 9.38476 114.778 9.99876 114.778 10.9645V17.0919H117.419V11.0925C117.419 10.0755 118.001 9.38476 118.992 9.38476C119.862 9.38476 120.515 9.92842 120.515 11.0221V17.0919H123.233V10.4849C123.233 8.35501 121.966 7.13977 120.137 7.13977C118.698 7.13977 117.579 7.87532 117.176 9.001H117.073C116.76 7.86251 115.756 7.13977 114.407 7.13977C113.083 7.13977 112.078 7.84332 111.669 9.001H111.554V7.2677H108.957V17.0919Z" fill="#3C2769"/>
<g clip-path="url(#clip0_11_46)">
<path d="M305.72 0H317.446L305.72 11.7259V0Z" fill="#3C2769"/>
<path d="M317.446 11.7259H305.72V23.4518H317.446V11.7259Z" fill="#3C2769"/>
<path d="M336.676 16.4995H344.537V14.3589H339.272V4.21936H336.676V16.4995Z" fill="#3C2769"/>
<path d="M349.863 16.6794C352.657 16.6794 354.396 14.7666 354.396 11.9305C354.396 9.07623 352.657 7.16943 349.863 7.16943C347.069 7.16943 345.33 9.07623 345.33 11.9305C345.33 14.7666 347.069 16.6794 349.863 16.6794ZM349.875 14.7007C348.586 14.7007 347.926 13.5194 347.926 11.9125C347.926 10.3055 348.586 9.11821 349.875 9.11821C351.14 9.11821 351.8 10.3055 351.8 11.9125C351.8 13.5194 351.14 14.7007 349.875 14.7007Z" fill="#3C2769"/>
<path d="M359.7 20.1452C362.332 20.1452 364.203 18.946 364.203 16.5895V7.28937H361.667V8.83639H361.571C361.229 8.08687 360.479 7.16943 358.938 7.16943C356.918 7.16943 355.209 8.74044 355.209 11.8765C355.209 14.9405 356.87 16.3676 358.945 16.3676C360.414 16.3676 361.235 15.6301 361.571 14.8686H361.679V16.5535C361.679 17.8187 360.869 18.3104 359.76 18.3104C358.633 18.3104 358.063 17.8187 357.853 17.2611L355.491 17.5789C355.797 19.0299 357.218 20.1452 359.7 20.1452ZM359.754 14.4488C358.501 14.4488 357.817 13.4535 357.817 11.8645C357.817 10.2995 358.489 9.20214 359.754 9.20214C360.995 9.20214 361.691 10.2515 361.691 11.8645C361.691 13.4895 360.983 14.4488 359.754 14.4488Z" fill="#3C2769"/>
<path d="M369.89 16.6794C372.685 16.6794 374.424 14.7666 374.424 11.9305C374.424 9.07623 372.685 7.16943 369.89 7.16943C367.096 7.16943 365.357 9.07623 365.357 11.9305C365.357 14.7666 367.096 16.6794 369.89 16.6794ZM369.902 14.7007C368.613 14.7007 367.954 13.5194 367.954 11.9125C367.954 10.3055 368.613 9.11821 369.902 9.11821C371.168 9.11821 371.827 10.3055 371.827 11.9125C371.827 13.5194 371.168 14.7007 369.902 14.7007Z" fill="#3C2769"/>
<path d="M375.578 16.4995H378.133V7.28937H375.578V16.4995ZM376.862 6.10212C377.623 6.10212 378.247 5.5205 378.247 4.80695C378.247 4.09939 377.623 3.51776 376.862 3.51776C376.106 3.51776 375.482 4.09939 375.482 4.80695C375.482 5.5205 376.106 6.10212 376.862 6.10212Z" fill="#3C2769"/>
<path d="M379.672 19.9534H382.226V15.0245H382.304C382.658 15.792 383.431 16.6494 384.919 16.6494C387.017 16.6494 388.654 14.9885 388.654 11.9065C388.654 8.74045 386.945 7.16943 384.925 7.16943C383.384 7.16943 382.646 8.08687 382.304 8.83639H382.19V7.28937H379.672V19.9534ZM382.172 11.8945C382.172 10.2515 382.868 9.20214 384.109 9.20214C385.374 9.20214 386.046 10.2995 386.046 11.8945C386.046 13.5014 385.362 14.6167 384.109 14.6167C382.88 14.6167 382.172 13.5374 382.172 11.8945Z" fill="#3C2769"/>
<path d="M397.514 9.91571C397.286 8.21878 395.919 7.16943 393.593 7.16943C391.236 7.16943 389.683 8.26074 389.689 10.0356C389.683 11.4148 390.553 12.3082 392.352 12.668L393.947 12.9858C394.75 13.1477 395.116 13.4415 395.128 13.9032C395.116 14.4488 394.522 14.8386 393.629 14.8386C392.717 14.8386 392.112 14.4488 391.956 13.6993L389.443 13.8312C389.683 15.5941 391.182 16.6794 393.623 16.6794C396.009 16.6794 397.718 15.4622 397.724 13.6454C397.718 12.3142 396.849 11.5167 395.062 11.1509L393.395 10.8152C392.537 10.6293 392.22 10.3355 392.226 9.89172C392.22 9.34006 392.843 8.98029 393.635 8.98029C394.522 8.98029 395.05 9.46597 395.176 10.0596L397.514 9.91571Z" fill="#3C2769"/>
<path d="M404.732 12.578C404.739 13.8132 403.893 14.4608 402.976 14.4608C402.01 14.4608 401.387 13.7832 401.381 12.6979V7.28937H398.826V13.1536C398.832 15.3063 400.091 16.6194 401.944 16.6194C403.329 16.6194 404.325 15.9059 404.739 14.8266H404.835V16.4995H407.287V7.28937H404.732V12.578Z" fill="#3C2769"/>
<path d="M408.823 16.4995H411.378V10.9711C411.378 9.95168 412.025 9.27411 412.877 9.27411C413.716 9.27411 414.28 9.84974 414.28 10.7552V16.4995H416.756V10.8751C416.756 9.92169 417.302 9.27411 418.231 9.27411C419.047 9.27411 419.658 9.78379 419.658 10.8092V16.4995H422.207V10.3055C422.207 8.30872 421.02 7.16943 419.305 7.16943C417.956 7.16943 416.906 7.85901 416.529 8.91434H416.432C416.139 7.847 415.197 7.16943 413.932 7.16943C412.691 7.16943 411.75 7.82901 411.366 8.91434H411.258V7.28937H408.823V16.4995Z" fill="#3C2769"/>
<path d="M317.445 0H329.171L317.445 11.7259V0Z" fill="#3C2769"/>
<path d="M317.445 11.7259H329.171L317.445 23.4518V11.7259Z" fill="#3C2769"/>
<path d="M336.676 16.4995H344.537V14.3589H339.272V4.21936H336.676V16.4995Z" fill="#3C2769"/>
<path d="M349.863 16.6794C352.657 16.6794 354.396 14.7666 354.396 11.9305C354.396 9.07623 352.657 7.16943 349.863 7.16943C347.069 7.16943 345.33 9.07623 345.33 11.9305C345.33 14.7666 347.069 16.6794 349.863 16.6794ZM349.875 14.7007C348.586 14.7007 347.926 13.5194 347.926 11.9125C347.926 10.3055 348.586 9.11821 349.875 9.11821C351.14 9.11821 351.8 10.3055 351.8 11.9125C351.8 13.5194 351.14 14.7007 349.875 14.7007Z" fill="#3C2769"/>
<path d="M359.7 20.1452C362.332 20.1452 364.203 18.946 364.203 16.5895V7.28937H361.667V8.83639H361.571C361.229 8.08687 360.479 7.16943 358.938 7.16943C356.918 7.16943 355.209 8.74044 355.209 11.8765C355.209 14.9405 356.87 16.3676 358.945 16.3676C360.414 16.3676 361.235 15.6301 361.571 14.8686H361.679V16.5535C361.679 17.8187 360.869 18.3104 359.76 18.3104C358.633 18.3104 358.063 17.8187 357.853 17.2611L355.491 17.5789C355.797 19.0299 357.218 20.1452 359.7 20.1452ZM359.754 14.4488C358.501 14.4488 357.817 13.4535 357.817 11.8645C357.817 10.2995 358.489 9.20214 359.754 9.20214C360.995 9.20214 361.691 10.2515 361.691 11.8645C361.691 13.4895 360.983 14.4488 359.754 14.4488Z" fill="#3C2769"/>
<path d="M369.89 16.6794C372.685 16.6794 374.424 14.7666 374.424 11.9305C374.424 9.07623 372.685 7.16943 369.89 7.16943C367.096 7.16943 365.357 9.07623 365.357 11.9305C365.357 14.7666 367.096 16.6794 369.89 16.6794ZM369.902 14.7007C368.613 14.7007 367.954 13.5194 367.954 11.9125C367.954 10.3055 368.613 9.11821 369.902 9.11821C371.168 9.11821 371.827 10.3055 371.827 11.9125C371.827 13.5194 371.168 14.7007 369.902 14.7007Z" fill="#3C2769"/>
<path d="M375.578 16.4995H378.133V7.28937H375.578V16.4995ZM376.862 6.10212C377.623 6.10212 378.247 5.5205 378.247 4.80695C378.247 4.09939 377.623 3.51776 376.862 3.51776C376.106 3.51776 375.482 4.09939 375.482 4.80695C375.482 5.5205 376.106 6.10212 376.862 6.10212Z" fill="#3C2769"/>
<path d="M379.672 19.9534H382.226V15.0245H382.304C382.658 15.792 383.431 16.6494 384.919 16.6494C387.017 16.6494 388.654 14.9885 388.654 11.9065C388.654 8.74045 386.945 7.16943 384.925 7.16943C383.384 7.16943 382.646 8.08687 382.304 8.83639H382.19V7.28937H379.672V19.9534ZM382.172 11.8945C382.172 10.2515 382.868 9.20214 384.109 9.20214C385.374 9.20214 386.046 10.2995 386.046 11.8945C386.046 13.5014 385.362 14.6167 384.109 14.6167C382.88 14.6167 382.172 13.5374 382.172 11.8945Z" fill="#3C2769"/>
<path d="M397.514 9.91571C397.286 8.21878 395.919 7.16943 393.593 7.16943C391.236 7.16943 389.683 8.26074 389.689 10.0356C389.683 11.4148 390.553 12.3082 392.352 12.668L393.947 12.9858C394.75 13.1477 395.116 13.4415 395.128 13.9032C395.116 14.4488 394.522 14.8386 393.629 14.8386C392.717 14.8386 392.112 14.4488 391.956 13.6993L389.443 13.8312C389.683 15.5941 391.182 16.6794 393.623 16.6794C396.009 16.6794 397.718 15.4622 397.724 13.6454C397.718 12.3142 396.849 11.5167 395.062 11.1509L393.395 10.8152C392.537 10.6293 392.22 10.3355 392.226 9.89172C392.22 9.34006 392.843 8.98029 393.635 8.98029C394.522 8.98029 395.05 9.46597 395.176 10.0596L397.514 9.91571Z" fill="#3C2769"/>
<path d="M404.732 12.578C404.739 13.8132 403.893 14.4608 402.976 14.4608C402.01 14.4608 401.387 13.7832 401.381 12.6979V7.28937H398.826V13.1536C398.832 15.3063 400.091 16.6194 401.944 16.6194C403.329 16.6194 404.325 15.9059 404.739 14.8266H404.835V16.4995H407.287V7.28937H404.732V12.578Z" fill="#3C2769"/>
<path d="M408.823 16.4995H411.378V10.9711C411.378 9.95168 412.025 9.27411 412.877 9.27411C413.716 9.27411 414.28 9.84974 414.28 10.7552V16.4995H416.756V10.8751C416.756 9.92169 417.302 9.27411 418.231 9.27411C419.047 9.27411 419.658 9.78379 419.658 10.8092V16.4995H422.207V10.3055C422.207 8.30872 421.02 7.16943 419.305 7.16943C417.956 7.16943 416.906 7.85901 416.529 8.91434H416.432C416.139 7.847 415.197 7.16943 413.932 7.16943C412.691 7.16943 411.75 7.82901 411.366 8.91434H411.258V7.28937H408.823V16.4995Z" fill="#3C2769"/>
</g>
<g clip-path="url(#clip1_11_46)">
<path d="M162.095 11.7259C165.333 11.7259 167.958 9.10096 167.958 5.86294C167.958 2.62493 165.333 0 162.095 0C158.857 0 156.232 2.62493 156.232 5.86294C156.232 9.10096 158.857 11.7259 162.095 11.7259Z" fill="#3C2769"/>
<path d="M162.095 23.4518C165.333 23.4518 167.958 20.8268 167.958 17.5888C167.958 14.3508 165.333 11.7259 162.095 11.7259C158.857 11.7259 156.232 14.3508 156.232 17.5888C156.232 20.8268 158.857 23.4518 162.095 23.4518Z" fill="#3C2769"/>
<path d="M187.189 16.4995H195.05V14.3589H189.785V4.21936H187.189V16.4995Z" fill="#3C2769"/>
<path d="M200.376 16.6794C203.17 16.6794 204.909 14.7666 204.909 11.9305C204.909 9.07623 203.17 7.16943 200.376 7.16943C197.582 7.16943 195.843 9.07623 195.843 11.9305C195.843 14.7666 197.582 16.6794 200.376 16.6794ZM200.388 14.7007C199.099 14.7007 198.439 13.5194 198.439 11.9125C198.439 10.3055 199.099 9.11821 200.388 9.11821C201.653 9.11821 202.313 10.3055 202.313 11.9125C202.313 13.5194 201.653 14.7007 200.388 14.7007Z" fill="#3C2769"/>
<path d="M210.213 20.1452C212.845 20.1452 214.716 18.946 214.716 16.5895V7.28937H212.18V8.83639H212.084C211.742 8.08687 210.992 7.16943 209.451 7.16943C207.431 7.16943 205.722 8.74044 205.722 11.8765C205.722 14.9405 207.383 16.3676 209.457 16.3676C210.926 16.3676 211.748 15.6301 212.084 14.8686H212.192V16.5535C212.192 17.8187 211.382 18.3104 210.273 18.3104C209.145 18.3104 208.576 17.8187 208.366 17.2611L206.004 17.5789C206.309 19.0299 207.73 20.1452 210.213 20.1452ZM210.267 14.4488C209.014 14.4488 208.33 13.4535 208.33 11.8645C208.33 10.2995 209.002 9.20214 210.267 9.20214C211.508 9.20214 212.204 10.2515 212.204 11.8645C212.204 13.4895 211.496 14.4488 210.267 14.4488Z" fill="#3C2769"/>
<path d="M220.403 16.6794C223.197 16.6794 224.936 14.7666 224.936 11.9305C224.936 9.07623 223.197 7.16943 220.403 7.16943C217.609 7.16943 215.87 9.07623 215.87 11.9305C215.87 14.7666 217.609 16.6794 220.403 16.6794ZM220.415 14.7007C219.126 14.7007 218.466 13.5194 218.466 11.9125C218.466 10.3055 219.126 9.11821 220.415 9.11821C221.68 9.11821 222.34 10.3055 222.34 11.9125C222.34 13.5194 221.68 14.7007 220.415 14.7007Z" fill="#3C2769"/>
<path d="M226.091 16.4995H228.645V7.28937H226.091V16.4995ZM227.374 6.10212C228.136 6.10212 228.759 5.5205 228.759 4.80695C228.759 4.09939 228.136 3.51776 227.374 3.51776C226.619 3.51776 225.995 4.09939 225.995 4.80695C225.995 5.5205 226.619 6.10212 227.374 6.10212Z" fill="#3C2769"/>
<path d="M230.185 19.9534H232.739V15.0245H232.817C233.171 15.792 233.944 16.6494 235.431 16.6494C237.53 16.6494 239.167 14.9885 239.167 11.9065C239.167 8.74045 237.458 7.16943 235.437 7.16943C233.896 7.16943 233.159 8.08687 232.817 8.83639H232.703V7.28937H230.185V19.9534ZM232.685 11.8945C232.685 10.2515 233.381 9.20214 234.622 9.20214C235.887 9.20214 236.559 10.2995 236.559 11.8945C236.559 13.5014 235.875 14.6167 234.622 14.6167C233.393 14.6167 232.685 13.5374 232.685 11.8945Z" fill="#3C2769"/>
<path d="M248.027 9.91571C247.799 8.21878 246.432 7.16943 244.105 7.16943C241.749 7.16943 240.196 8.26074 240.202 10.0356C240.196 11.4148 241.065 12.3082 242.864 12.668L244.459 12.9858C245.263 13.1477 245.629 13.4415 245.641 13.9032C245.629 14.4488 245.035 14.8386 244.142 14.8386C243.23 14.8386 242.624 14.4488 242.468 13.6993L239.956 13.8312C240.196 15.5941 241.695 16.6794 244.135 16.6794C246.522 16.6794 248.231 15.4622 248.237 13.6454C248.231 12.3142 247.361 11.5167 245.574 11.1509L243.907 10.8152C243.05 10.6293 242.732 10.3355 242.738 9.89172C242.732 9.34006 243.356 8.98029 244.147 8.98029C245.035 8.98029 245.562 9.46597 245.688 10.0596L248.027 9.91571Z" fill="#3C2769"/>
<path d="M255.245 12.578C255.251 13.8132 254.406 14.4608 253.488 14.4608C252.523 14.4608 251.899 13.7832 251.893 12.6979V7.28937H249.339V13.1536C249.345 15.3063 250.604 16.6194 252.457 16.6194C253.842 16.6194 254.837 15.9059 255.251 14.8266H255.347V16.4995H257.8V7.28937H255.245V12.578Z" fill="#3C2769"/>
<path d="M259.336 16.4995H261.891V10.9711C261.891 9.95168 262.538 9.27411 263.39 9.27411C264.229 9.27411 264.793 9.84974 264.793 10.7552V16.4995H267.269V10.8751C267.269 9.92169 267.815 9.27411 268.744 9.27411C269.559 9.27411 270.171 9.78379 270.171 10.8092V16.4995H272.72V10.3055C272.72 8.30872 271.532 7.16943 269.817 7.16943C268.468 7.16943 267.419 7.85901 267.041 8.91434H266.945C266.651 7.847 265.71 7.16943 264.445 7.16943C263.204 7.16943 262.262 7.82901 261.878 8.91434H261.77V7.28937H259.336V16.4995Z" fill="#3C2769"/>
<path d="M179.684 0H167.958V11.7259H179.684V0Z" fill="#3C2769"/>
<path d="M167.958 11.7259H179.684L167.958 23.4518V11.7259Z" fill="#3C2769"/>
<path d="M187.189 16.4995H195.05V14.3589H189.785V4.21936H187.189V16.4995Z" fill="#3C2769"/>
<path d="M200.376 16.6794C203.17 16.6794 204.909 14.7666 204.909 11.9305C204.909 9.07623 203.17 7.16943 200.376 7.16943C197.582 7.16943 195.843 9.07623 195.843 11.9305C195.843 14.7666 197.582 16.6794 200.376 16.6794ZM200.388 14.7007C199.099 14.7007 198.439 13.5194 198.439 11.9125C198.439 10.3055 199.099 9.11821 200.388 9.11821C201.653 9.11821 202.313 10.3055 202.313 11.9125C202.313 13.5194 201.653 14.7007 200.388 14.7007Z" fill="#3C2769"/>
<path d="M210.213 20.1452C212.845 20.1452 214.716 18.946 214.716 16.5895V7.28937H212.18V8.83639H212.084C211.742 8.08687 210.992 7.16943 209.451 7.16943C207.431 7.16943 205.722 8.74044 205.722 11.8765C205.722 14.9405 207.383 16.3676 209.457 16.3676C210.926 16.3676 211.748 15.6301 212.084 14.8686H212.192V16.5535C212.192 17.8187 211.382 18.3104 210.273 18.3104C209.145 18.3104 208.576 17.8187 208.366 17.2611L206.004 17.5789C206.309 19.0299 207.73 20.1452 210.213 20.1452ZM210.267 14.4488C209.014 14.4488 208.33 13.4535 208.33 11.8645C208.33 10.2995 209.002 9.20214 210.267 9.20214C211.508 9.20214 212.204 10.2515 212.204 11.8645C212.204 13.4895 211.496 14.4488 210.267 14.4488Z" fill="#3C2769"/>
<path d="M220.403 16.6794C223.197 16.6794 224.936 14.7666 224.936 11.9305C224.936 9.07623 223.197 7.16943 220.403 7.16943C217.609 7.16943 215.87 9.07623 215.87 11.9305C215.87 14.7666 217.609 16.6794 220.403 16.6794ZM220.415 14.7007C219.126 14.7007 218.466 13.5194 218.466 11.9125C218.466 10.3055 219.126 9.11821 220.415 9.11821C221.68 9.11821 222.34 10.3055 222.34 11.9125C222.34 13.5194 221.68 14.7007 220.415 14.7007Z" fill="#3C2769"/>
<path d="M226.091 16.4995H228.645V7.28937H226.091V16.4995ZM227.374 6.10212C228.136 6.10212 228.759 5.5205 228.759 4.80695C228.759 4.09939 228.136 3.51776 227.374 3.51776C226.619 3.51776 225.995 4.09939 225.995 4.80695C225.995 5.5205 226.619 6.10212 227.374 6.10212Z" fill="#3C2769"/>
<path d="M230.185 19.9534H232.739V15.0245H232.817C233.171 15.792 233.944 16.6494 235.431 16.6494C237.53 16.6494 239.167 14.9885 239.167 11.9065C239.167 8.74045 237.458 7.16943 235.437 7.16943C233.896 7.16943 233.159 8.08687 232.817 8.83639H232.703V7.28937H230.185V19.9534ZM232.685 11.8945C232.685 10.2515 233.381 9.20214 234.622 9.20214C235.887 9.20214 236.559 10.2995 236.559 11.8945C236.559 13.5014 235.875 14.6167 234.622 14.6167C233.393 14.6167 232.685 13.5374 232.685 11.8945Z" fill="#3C2769"/>
<path d="M248.027 9.91571C247.799 8.21878 246.432 7.16943 244.105 7.16943C241.749 7.16943 240.196 8.26074 240.202 10.0356C240.196 11.4148 241.065 12.3082 242.864 12.668L244.459 12.9858C245.263 13.1477 245.629 13.4415 245.641 13.9032C245.629 14.4488 245.035 14.8386 244.142 14.8386C243.23 14.8386 242.624 14.4488 242.468 13.6993L239.956 13.8312C240.196 15.5941 241.695 16.6794 244.135 16.6794C246.522 16.6794 248.231 15.4622 248.237 13.6454C248.231 12.3142 247.361 11.5167 245.574 11.1509L243.907 10.8152C243.05 10.6293 242.732 10.3355 242.738 9.89172C242.732 9.34006 243.356 8.98029 244.147 8.98029C245.035 8.98029 245.562 9.46597 245.688 10.0596L248.027 9.91571Z" fill="#3C2769"/>
<path d="M255.245 12.578C255.251 13.8132 254.406 14.4608 253.488 14.4608C252.523 14.4608 251.899 13.7832 251.893 12.6979V7.28937H249.339V13.1536C249.345 15.3063 250.604 16.6194 252.457 16.6194C253.842 16.6194 254.837 15.9059 255.251 14.8266H255.347V16.4995H257.8V7.28937H255.245V12.578Z" fill="#3C2769"/>
<path d="M259.336 16.4995H261.891V10.9711C261.891 9.95168 262.538 9.27411 263.39 9.27411C264.229 9.27411 264.793 9.84974 264.793 10.7552V16.4995H267.269V10.8751C267.269 9.92169 267.815 9.27411 268.744 9.27411C269.559 9.27411 270.171 9.78379 270.171 10.8092V16.4995H272.72V10.3055C272.72 8.30872 271.532 7.16943 269.817 7.16943C268.468 7.16943 267.419 7.85901 267.041 8.91434H266.945C266.651 7.847 265.71 7.16943 264.445 7.16943C263.204 7.16943 262.262 7.82901 261.878 8.91434H261.77V7.28937H259.336V16.4995Z" fill="#3C2769"/>
</g>
<defs>
<clipPath id="clip0_11_46">
<rect width="118" height="24" fill="white" transform="translate(305)"/>
</clipPath>
<clipPath id="clip1_11_46">
<rect width="117" height="24" fill="white" transform="translate(156)"/>
</clipPath>
</defs>
</svg>
